# Blender v2.79 (sub 0) OBJ File: 'HAIR GRASS.blend'
# OBJ preparado con coordenadas UV para usar pasto.png
mtllib HAIR+GRASS.mtl

o Cube
v 1.000000 -0.200000 -1.000000
v 1.000000 -0.200000 1.000000
v -1.000000 -0.200000 1.000000
v -1.000000 -0.200000 -1.000000
v 1.000000 0.200000 -0.999999
v 0.999999 0.200000 1.000001
v -1.000000 0.200000 1.000000
v -1.000000 0.200000 -1.000000

vn 0.0000 -1.0000 0.0000
vn 0.0000 1.0000 0.0000
vn 1.0000 0.0000 0.0000
vn -0.0000 -0.0000 1.0000
vn -1.0000 -0.0000 -0.0000
vn 0.0000 0.0000 -1.0000

# UVs: se repiten para mapear cada cara completa
vt 0.000000 0.000000
vt 1.000000 0.000000
vt 1.000000 1.000000
vt 0.000000 1.000000

usemtl Material
s off
f 1/1/1 2/2/1 3/3/1 4/4/1
f 5/1/2 8/2/2 7/3/2 6/4/2
f 1/1/3 5/2/3 6/3/3 2/4/3
f 2/1/4 6/2/4 7/3/4 3/4/4
f 3/1/5 7/2/5 8/3/5 4/4/5
f 5/1/6 1/2/6 4/3/6 8/4/6

o grass_Plane
v -0.574345 0.583714 3.132235
v 0.008109 -0.004553 4.285553
v -0.578449 0.578568 3.131529
v 0.016044 -0.036595 4.261734
v -0.212544 0.351777 3.724385
v -0.200849 0.256269 3.662123
v -0.096837 0.196909 4.004401
v -0.086252 0.089072 3.962497
v -0.368466 0.420936 3.399120
v -0.371401 0.464228 3.426017

vn 0.9457 0.2278 -0.2318
vn 0.9508 0.2256 -0.2123
vn 0.9467 0.2274 -0.2282
vn 0.8612 0.2919 -0.4159
vn 0.9149 0.2727 -0.2976
vn 0.9131 0.2753 -0.3008
vn 0.8597 0.2898 -0.4205
vn 0.8347 0.2573 -0.4869

usemtl Material.001
s 1
f 15/1/7 10/2/8 12/3/8 16/4/9
f 18/1/10 13/2/11 14/3/12 17/4/13
f 13/1/11 15/2/7 16/3/9 14/4/12
f 9/1/14 18/2/10 17/3/13 11/4/14
